<?xml version="1.0" encoding="utf-8"?>
<!-- Generator: Adobe Illustrator 15.0.2, SVG Export Plug-In  -->
<!DOCTYPE svg PUBLIC "-//W3C//DTD SVG 1.1//EN" "http://www.w3.org/Graphics/SVG/1.1/DTD/svg11.dtd" [
	<!ENTITY ns_flows "http://ns.adobe.com/Flows/1.0/">
]>
<svg version="1.1"
	 xmlns="http://www.w3.org/2000/svg" xmlns:xlink="http://www.w3.org/1999/xlink" xmlns:a="http://ns.adobe.com/AdobeSVGViewerExtensions/3.0/"
	 x="0px" y="0px" width="353px" height="166px" viewBox="0 0 353 166" overflow="visible" enable-background="new 0 0 353 166"
	 xml:space="preserve">
<defs>
</defs>
<path d="M352.864,0v112.009c0,0,0,54.386-63.452,54.386c-43.377,0-2.588,0-2.588,0H186.468V62.803c0,0-2.102-62.803,57.625-62.803
	C289.413,0,352.864,0,352.864,0z"/>
<path d="M0,0v112.009c0,0,0,54.386,63.452,54.386c43.376,0,2.587,0,2.587,0h100.357V62.803c0,0,2.102-62.803-57.625-62.803
	C63.452,0,0,0,0,0z"/>
</svg>
