<?xml version="1.0" encoding="utf-8"?>
<!-- Generator: Adobe Illustrator 16.0.0, SVG Export Plug-In . SVG Version: 6.00 Build 0)  -->
<!DOCTYPE svg PUBLIC "-//W3C//DTD SVG 1.1//EN" "http://www.w3.org/Graphics/SVG/1.1/DTD/svg11.dtd">
<svg version="1.1" id="Layer_1" xmlns="http://www.w3.org/2000/svg" xmlns:xlink="http://www.w3.org/1999/xlink" x="0px" y="0px"
	 width="180.693px" height="150.5px" viewBox="0 0 180.693 150.5" enable-background="new 0 0 180.693 150.5" xml:space="preserve">
<g>
	<path d="M7.751,140.943H7.145c-0.291-1.066-0.847-2.204-2.131-2.204c-1.114,0-1.985,0.534-1.985,1.67
		c0,0.945,1.283,1.526,2.542,2.229c1.283,0.727,2.543,1.574,2.543,3.075c0,2.106-1.938,3.415-3.899,3.415
		c-1.575,0-3.1-0.702-3.125-1.09l-0.121-2.203l0.702-0.073c0.097,0.122,0.121,0.291,0.17,0.46c0.266,0.993,1.356,2.107,2.421,2.107
		c1.235,0,2.01-0.751,2.01-2.011c0-0.798-1.113-1.646-1.72-1.961c-1.404-0.727-3.196-1.55-3.196-3.39
		c0-2.009,1.841-3.027,3.681-3.027c0.968,0,1.938,0.266,2.857,0.75L7.751,140.943z"/>
	<path d="M11.021,140.192c0-0.799-0.339-0.799-1.163-0.799c-0.242,0-0.436,0-0.436-0.315c0-0.217,0.266-0.435,0.509-0.605
		c0.823-0.604,2.083-1.622,2.736-2.374c0.218,0,0.314,0.048,0.314,0.267c0,0.63-0.072,1.308-0.072,1.914h3.051
		c0.291,0,0.291,0.048,0.291,0.532s-0.049,0.557-0.267,0.557H12.86v6.345c0,1.042,0.267,2.01,1.502,2.01
		c0.799,0,1.404-0.508,1.719-1.235l0.412,0.34c-0.412,1.332-1.428,2.3-2.881,2.3c-1.332,0-2.591-0.727-2.591-2.203V140.192z"/>
	<path d="M19.472,140.604c0-1.331-0.582-1.453-1.575-1.453c-0.121,0-0.363-0.024-0.363-0.097v-0.411c0-0.122,0.024-0.146,0.17-0.17
		c0.63-0.072,1.405-0.193,2.059-0.315c0.653-0.121,1.187-0.217,1.283-0.217c0.242,0,0.315,0.217,0.315,0.532
		c0,0.267-0.048,0.63-0.048,0.969v5.642c0,1.646,0.654,2.471,2.421,2.471c1.042,0,2.01-0.629,2.712-1.308v-5.643
		c0-1.331-0.581-1.453-1.574-1.453c-0.121,0-0.363-0.024-0.363-0.097v-0.411c0-0.122,0.024-0.146,0.17-0.17
		c0.629-0.072,1.404-0.193,2.058-0.315c0.655-0.121,1.187-0.217,1.284-0.217c0.242,0,0.314,0.217,0.314,0.532
		c0,0.267-0.048,0.63-0.048,0.969v6.345c0,1.162,0,1.646,0.412,1.646c0.533,0,1.066-0.17,1.139-0.17
		c0.048,0,0.073,0.122,0.073,0.267c0,0.218-0.048,0.338-0.097,0.363c-0.582,0.17-3.221,1.235-3.318,1.235
		c-0.073,0-0.122-0.315-0.122-0.46c0-0.193,0.049-0.437,0.049-0.75v-0.896c-0.92,0.944-2.179,2.106-3.584,2.106
		c-1.937,0-3.366-0.993-3.366-3.341V140.604z"/>
	<path d="M40.856,146.513c0,0.75,0.29,0.992,0.702,0.992c0.388,0,0.896-0.242,0.944-0.242c0.072,0,0.146,0.122,0.146,0.242v0.46
		c-0.654,0.266-2.907,1.09-3.487,1.09c-0.073,0-0.097-0.388-0.097-0.46v-1.332c-1.066,0.872-2.277,1.865-3.73,1.865
		c-2.711,0-4.479-2.446-4.479-5.013c0-3.221,2.373-6.175,5.739-6.175c0.605,0,1.961,0.217,2.421,0.532v-5.376
		c0-0.896-0.169-1.065-0.92-1.355c-0.363-0.146-0.557-0.267-0.557-0.46c0-0.218,0.605-0.412,1.065-0.581l1.768-0.727
		c0.122-0.049,0.291-0.122,0.363-0.122c0.17,0,0.17,0.242,0.17,0.387c0,1.163-0.048,2.349-0.048,3.512V146.513z M39.015,141.548
		c0-1.574-1.258-2.809-2.856-2.809c-2.374,0-3.294,2.567-3.294,4.553c0,1.841,1.138,4.431,3.318,4.431
		c1.187,0,2.034-0.435,2.833-1.307V141.548z"/>
	<path d="M47.759,146.948c0,0.533,0,1.163,1.67,1.163c0.048,0,0.048,0.145,0.048,0.338c0,0.218-0.024,0.339-0.072,0.339
		c-0.945,0-2.01-0.121-2.519-0.121c-0.872,0-1.744,0.121-2.615,0.121c-0.17,0-0.218-0.073-0.218-0.169v-0.218
		c0-0.29,0.073-0.29,0.412-0.29c1.066,0,1.453-0.146,1.453-1.283v-4.989c0-1.526,0-1.623-0.944-2.01
		c-0.363-0.145-0.702-0.267-0.702-0.46s0.242-0.266,1.234-0.654l1.768-0.654c0.048-0.024,0.29-0.121,0.363-0.121
		c0.17,0,0.17,0.242,0.17,0.388c0,1.162-0.048,2.349-0.048,3.511V146.948z M46.766,130.749c0.75,0,1.356,0.605,1.356,1.356
		c0,0.75-0.606,1.355-1.356,1.355c-0.751,0-1.356-0.605-1.356-1.355C45.409,131.354,46.015,130.749,46.766,130.749z"/>
	<path d="M56.646,137.94c2.881,0,5.399,2.518,5.399,5.424c0,3.487-2.881,5.763-6.054,5.763c-2.929,0-5.254-2.47-5.254-5.424
		C50.738,140.458,53.425,137.94,56.646,137.94z M56.089,138.739c-2.445,0-3.172,2.3-3.172,4.625c0,2.131,1.138,4.964,3.632,4.964
		c2.373,0,3.318-2.107,3.318-4.189C59.867,141.718,59.043,138.739,56.089,138.739z"/>
	<path d="M74.689,149.056c-0.024,0.072-0.122,0.072-0.194,0.072c-0.146,0-0.291-0.242-0.412-0.533
		c-0.097-0.242-0.121-0.484-0.242-0.75c-1.187-2.785-2.664-6.03-3.584-8.379c-0.169-0.436-1.114-0.508-1.501-0.508
		c-0.097,0-0.145-0.194-0.145-0.389c0-0.145,0.072-0.29,0.145-0.29c0.436,0,1.477,0.121,2.543,0.121
		c0.823,0,2.155-0.121,2.494-0.121c0.097,0,0.146,0.048,0.146,0.266v0.242c0,0.073-0.049,0.17-0.121,0.17l-0.751,0.048
		c-0.363,0.023-0.678,0.096-0.678,0.387c0,0.194,0.146,0.702,0.315,1.138c0.727,1.84,1.574,3.681,2.35,5.521h0.048
		c0.339-1.114,2.373-5.424,2.373-6.272c0-0.678-0.412-0.823-1.09-0.823h-0.363c-0.097,0-0.146-0.025-0.146-0.243v-0.218
		c0-0.097,0.049-0.217,0.121-0.217c0.193,0,1.09,0.121,2.301,0.121c0.242,0,1.235-0.121,1.889-0.121
		c0.048,0,0.097,0.023,0.097,0.169v0.315c0,0.146-0.048,0.194-0.169,0.194c-1.163,0-1.429,0.532-1.889,1.622L74.689,149.056z"/>
	<path d="M86.24,137.94c2.882,0,5.4,2.518,5.4,5.424c0,3.487-2.882,5.763-6.055,5.763c-2.93,0-5.254-2.47-5.254-5.424
		C80.332,140.458,83.02,137.94,86.24,137.94z M85.683,138.739c-2.446,0-3.172,2.3-3.172,4.625c0,2.131,1.138,4.964,3.633,4.964
		c2.373,0,3.317-2.107,3.317-4.189C89.461,141.718,88.638,138.739,85.683,138.739z"/>
	<path d="M94.402,140.677c0-0.46-0.218-0.751-0.46-0.799l-0.799-0.193c-0.073-0.025-0.146-0.097-0.146-0.267
		c0-0.073,0.024-0.243,0.146-0.267c1.21-0.315,2.857-1.21,3.002-1.21c0.097,0,0.097,0.193,0.097,0.291v1.67
		c1.138-0.896,2.422-1.961,3.972-1.961c2.107,0,3.003,1.186,3.003,3.221v5.909c0,1.042,0.798,1.042,1.598,1.042
		c0.048,0,0.097,0.048,0.097,0.168v0.437c0,0.048-0.049,0.073-0.122,0.073c-0.968,0-1.598-0.121-2.397-0.121
		c-0.872,0-1.72,0.121-2.591,0.121c-0.169,0-0.169-0.436-0.169-0.533c0-0.073,0.097-0.145,0.242-0.145c0.387,0,1.501,0,1.501-0.727
		v-5.691c0-1.501-0.46-2.349-2.155-2.349c-1.017,0-2.276,0.605-2.979,1.308v6.296c0,0.533,0,1.163,1.671,1.163
		c0.048,0,0.048,0.145,0.048,0.338c0,0.218-0.024,0.339-0.073,0.339c-0.944,0-2.01-0.121-2.519-0.121
		c-0.872,0-1.744,0.121-2.616,0.121c-0.169,0-0.218-0.073-0.218-0.169v-0.218c0-0.29,0.073-0.29,0.412-0.29
		c1.065,0,1.453-0.146,1.453-1.283V140.677z"/>
	<path d="M114.091,132.952c0-0.387-0.267-0.654-0.46-0.775l-0.75-0.436c-0.073-0.049-0.097-0.169-0.097-0.339
		c0-0.073,0.145-0.121,0.484-0.29l1.066-0.509c0.508-0.242,1.356-0.75,1.477-0.75c0.048,0,0.169,0.048,0.169,0.122
		c0,0.968-0.048,1.913-0.048,2.881v6.562c1.065-0.727,2.106-1.477,3.487-1.477c2.979,0,4.818,2.518,4.818,5.473
		c0,3.124-2.905,5.715-6.103,5.715c-0.847,0-1.815-0.848-2.688-0.848c-0.581,0-0.581,0.34-0.92,0.703h-0.484
		c0-0.485,0.048-0.968,0.048-1.478V132.952z M115.932,145.133c0,0.944,0.582,3.05,3.003,3.05c2.446,0,3.293-2.445,3.293-4.552
		c0-2.421-1.405-4.48-3.947-4.48c-0.8,0-1.768,0.363-2.35,0.92V145.133z"/>
	<path d="M129.227,146.948c0,0.533,0,1.163,1.671,1.163c0.048,0,0.048,0.145,0.048,0.338c0,0.218-0.024,0.339-0.072,0.339
		c-0.945,0-2.01-0.121-2.519-0.121c-0.872,0-1.744,0.121-2.615,0.121c-0.17,0-0.218-0.073-0.218-0.169v-0.218
		c0-0.29,0.072-0.29,0.412-0.29c1.065,0,1.453-0.146,1.453-1.283v-4.989c0-1.526,0-1.623-0.944-2.01
		c-0.363-0.145-0.702-0.267-0.702-0.46s0.242-0.266,1.234-0.654l1.768-0.654c0.048-0.024,0.291-0.121,0.363-0.121
		c0.17,0,0.17,0.242,0.17,0.388c0,1.162-0.049,2.349-0.049,3.511V146.948z M128.234,130.749c0.75,0,1.356,0.605,1.356,1.356
		c0,0.75-0.606,1.355-1.356,1.355c-0.751,0-1.356-0.605-1.356-1.355C126.878,131.354,127.483,130.749,128.234,130.749z"/>
	<path d="M136.444,146.222c0,0.97,0,1.89,1.84,1.89c0.146,0,0.17,0.12,0.17,0.338s0,0.339-0.194,0.339
		c-0.848,0-1.695-0.121-2.542-0.121c-0.92,0-1.889,0.121-2.809,0.121c-0.097,0-0.097-0.048-0.097-0.194v-0.218
		c0-0.243,0.048-0.266,0.533-0.291c1.065-0.072,1.259-0.435,1.259-1.743v-5.376c0-0.46-0.218-0.75-0.727-0.896
		c-0.097-0.024-0.727-0.194-0.727-0.533c0-0.146,0.073-0.217,0.34-0.339l1.792-0.823c0.533-0.242,0.945-0.436,1.017-0.436
		c0.146,0,0.194,0.145,0.194,0.217l-0.048,2.495l0.048,0.048c0.775-0.993,1.888-2.76,3.366-2.76c0.872,0,1.38,0.412,1.38,1.307
		c0,0.509-0.484,0.945-0.993,0.945c-0.653,0-0.896-0.436-1.622-0.436c-0.581,0-1.332,0.824-1.816,1.429l-0.363,0.46V146.222z"/>
	<path d="M143.443,132.952c0-0.387-0.267-0.654-0.46-0.775l-0.75-0.436c-0.073-0.049-0.097-0.169-0.097-0.339
		c0-0.073,0.145-0.145,0.484-0.29l1.065-0.509c0.508-0.242,1.138-0.532,1.477-0.75l0.17,0.122c0,0.968-0.048,1.913-0.048,2.881
		v10.123h0.048c0.944-0.775,1.913-1.453,2.809-2.277c0.751-0.701,1.041-1.016,1.041-1.332c0-0.411-1.113-0.411-1.38-0.411
		c-0.073,0-0.17-0.097-0.17-0.17v-0.339c0-0.146,0.122-0.169,0.17-0.169c0.751,0,1.574,0.121,2.349,0.121
		c0.921,0,1.865-0.121,2.785-0.121c0.048,0,0.121,0.072,0.121,0.121v0.412c0,0.049-0.097,0.146-0.121,0.146l-1.041,0.072
		c-0.678,0.048-0.872,0.218-2.035,1.259l-1.405,1.259c-0.097,0.097-0.242,0.218-0.217,0.388l3.584,4.552
		c0.291,0.388,0.581,0.823,0.944,1.163c0.315,0.29,0.654,0.46,1.188,0.46c0.193,0,0.242,0.097,0.242,0.218
		c0,0.217-0.048,0.46-0.218,0.46c-0.048,0-1.816-0.121-2.616-0.121c-0.727,0-1.477,0.121-2.785,0.121c-0.097,0-0.218,0-0.218-0.073
		c0-0.193,0.025-0.605,0.122-0.605c0.387,0,1.501,0,1.501-0.606c0-0.217-0.17-0.629-0.751-1.307l-2.663-3.221l-0.073,0.024
		l-1.065,0.75c-0.097,0.073-0.145,0.146-0.145,0.242v2.446c0,0.993,0,1.501,1.09,1.623l0.46,0.048
		c0.121,0.023,0.169,0.072,0.169,0.168v0.413c0,0.048-0.048,0.097-0.121,0.097c-0.848,0-1.695-0.121-2.543-0.121
		c-0.388,0-2.349,0.121-2.566,0.121c-0.049,0-0.073-0.097-0.073-0.169v-0.363c0-0.122,0.048-0.145,0.121-0.145
		c1.114-0.122,1.622-0.097,1.622-1.308V132.952z"/>
	<path d="M156.714,142.323c-0.049,0.339-0.049,0.678-0.049,1.017c0,2.106,1.623,4.214,3.826,4.214c0.896,0,1.526-0.339,2.736-1.429
		l0.436,0.315c-0.969,1.575-2.421,2.688-4.358,2.688c-2.471,0-4.48-2.373-4.48-5.061c0-2.857,1.938-6.126,5.11-6.126
		c2.155,0,3.681,1.622,3.681,3.632v0.75H156.714z M160.928,141.645c0.315,0,0.678-0.46,0.678-0.872c0-1.186-0.896-2.034-2.083-2.034
		c-1.453,0-2.445,1.67-2.688,3.027L160.928,141.645z"/>
	<path d="M166.595,140.677c0-0.46-0.218-0.751-0.46-0.799l-0.799-0.193c-0.073-0.025-0.146-0.097-0.146-0.267
		c0-0.073,0.024-0.243,0.146-0.267c1.21-0.315,2.858-1.21,3.002-1.21c0.097,0,0.097,0.193,0.097,0.291v1.67
		c1.138-0.896,2.421-1.961,3.971-1.961c2.107,0,3.003,1.186,3.003,3.221v5.909c0,1.042,0.798,1.042,1.598,1.042
		c0.048,0,0.097,0.048,0.097,0.168v0.437c0,0.048-0.048,0.073-0.122,0.073c-0.968,0-1.598-0.121-2.396-0.121
		c-0.873,0-1.719,0.121-2.591,0.121c-0.169,0-0.169-0.436-0.169-0.533c0-0.073,0.097-0.145,0.242-0.145c0.388,0,1.501,0,1.501-0.727
		v-5.691c0-1.501-0.46-2.349-2.155-2.349c-1.018,0-2.277,0.605-2.979,1.308v6.296c0,0.533,0,1.163,1.671,1.163
		c0.048,0,0.048,0.145,0.048,0.338c0,0.218-0.024,0.339-0.072,0.339c-0.945,0-2.01-0.121-2.519-0.121
		c-0.872,0-1.744,0.121-2.615,0.121c-0.17,0-0.218-0.073-0.218-0.169v-0.218c0-0.29,0.073-0.29,0.412-0.29
		c1.065,0,1.453-0.146,1.453-1.283V140.677z"/>
</g>
<g>
	<path d="M41.977,11.322c0,4.771-3.851,8.622-8.622,8.622H22.699V9.288c0-4.771,3.851-8.621,8.622-8.621h10.656V11.322z M1,11.322
		c0,4.771,3.851,8.622,8.622,8.622h10.656V9.288c0-4.771-3.851-8.621-8.622-8.621H1V11.322z"/>
</g>
</svg>
